<?xml version="1.0" encoding="UTF-8"?>
<!DOCTYPE svg PUBLIC "-//W3C//DTD SVG 1.1//EN" "http://www.w3.org/Graphics/SVG/1.1/DTD/svg11.dtd">
<svg xmlns="http://www.w3.org/2000/svg" version="1.1" width="600px" height="280px" style="shape-rendering:geometricPrecision; text-rendering:geometricPrecision; image-rendering:optimizeQuality; fill-rule:evenodd; clip-rule:evenodd" xmlns:xlink="http://www.w3.org/1999/xlink">
<g><path style="opacity:0.972" fill="#fdfefe" d="M 364.5,5.5 C 377.945,4.63473 386.279,10.6347 389.5,23.5C 409.923,26.0498 428.256,33.5498 444.5,46C 449.389,50.3862 453.722,55.2196 457.5,60.5C 464.51,64.1718 471.843,67.0052 479.5,69C 481.5,70.3333 483.5,71.6667 485.5,73C 490.857,79.3548 496.523,85.3548 502.5,91C 514.41,96.9722 521.91,106.472 525,119.5C 529.101,123.903 534.267,126.07 540.5,126C 553.266,133.123 561.099,143.956 564,158.5C 567.986,184.83 557.153,201.33 531.5,208C 533.102,209.935 534.269,212.101 535,214.5C 536.253,232.07 530.753,247.237 518.5,260C 499.985,270.414 484.985,266.747 473.5,249C 469.993,246.746 466.327,244.746 462.5,243C 456.601,243.956 450.601,244.456 444.5,244.5C 439.777,266.862 426.11,276.362 403.5,273C 397.045,271.188 390.878,268.688 385,265.5C 374.458,269.606 363.958,269.44 353.5,265C 339.292,252.551 337.958,238.884 349.5,224C 345.252,219.263 341.252,214.43 337.5,209.5C 334.58,210.586 331.58,211.252 328.5,211.5C 325.016,250.807 303.683,267.641 264.5,262C 260.615,261.261 256.948,259.927 253.5,258C 245.881,252.716 238.548,247.049 231.5,241C 226.328,241.079 221.161,241.579 216,242.5C 209.535,241.807 203.202,240.474 197,238.5C 184.205,259.81 165.372,268.644 140.5,265C 136.833,264 133.167,263 129.5,262C 120.5,255.667 111.5,249.333 102.5,243C 94.1667,242.667 85.8333,242.333 77.5,242C 64.5367,234.268 52.37,225.435 41,215.5C 38.281,210.678 36.781,205.511 36.5,200C 40.2101,169.486 44.0435,138.986 48,108.5C 49.3842,99.5364 54.2176,93.3697 62.5,90C 83.5885,87.6343 104.755,86.1343 126,85.5C 129.235,85.5818 132.402,86.0818 135.5,87C 139.316,88.9923 143.149,90.8256 147,92.5C 157.537,91.0418 168.037,91.2084 178.5,93C 191.398,99.2323 203.231,107.066 214,116.5C 224.073,115.2 234.24,114.367 244.5,114C 251.446,100.366 262.446,92.3659 277.5,90C 285.521,89.8316 293.521,89.3316 301.5,88.5C 295.262,77.8456 295.095,67.1789 301,56.5C 307.633,48.5111 316.133,45.6777 326.5,48C 329.661,49.4131 332.661,51.0797 335.5,53C 342.457,56.2619 344.624,54.4286 342,47.5C 339.436,33.2381 343.27,21.0714 353.5,11C 356.819,8.29406 360.485,6.46073 364.5,5.5 Z"/></g>
<g><path style="opacity:1" fill="#fec23e" d="M 442.5,80.5 C 442.366,82.2915 442.699,83.9582 443.5,85.5C 443.5,88.5 443.5,91.5 443.5,94.5C 442.917,97.9466 441.584,100.947 439.5,103.5C 437.167,103.5 434.833,103.5 432.5,103.5C 432.666,99.4862 432.499,95.4862 432,91.5C 431.768,90.2625 431.268,89.2625 430.5,88.5C 429.502,84.4945 427.502,81.1612 424.5,78.5C 421.236,74.7532 417.236,71.9198 412.5,70C 404.743,67.0609 396.743,65.0609 388.5,64C 380.679,61.8416 373.845,58.0083 368,52.5C 362.255,44.3818 362.255,36.3818 368,28.5C 368.038,36.8819 372.205,42.0485 380.5,44C 395.913,46.852 410.579,51.852 424.5,59C 432.564,64.5536 438.564,71.7202 442.5,80.5 Z"/></g>
<g><path style="opacity:1" fill="#ed4137" d="M 383.5,69.5 C 384.53,70.5523 385.197,71.8857 385.5,73.5C 385.964,79.9695 386.964,86.3029 388.5,92.5C 374.187,99.4697 359.187,101.303 343.5,98C 329.341,93.524 321.507,84.024 320,69.5C 325.562,74.2995 332.062,76.6328 339.5,76.5C 350.003,75.1241 360.336,72.9574 370.5,70C 374.821,69.501 379.154,69.3343 383.5,69.5 Z"/></g>
<g><path style="opacity:1" fill="#dc3433" d="M 383.5,69.5 C 389.668,69.5426 395.668,70.5426 401.5,72.5C 402.134,78.1448 402.468,83.8114 402.5,89.5C 400.585,89.2155 398.919,89.5489 397.5,90.5C 394.402,90.7556 391.402,91.4222 388.5,92.5C 386.964,86.3029 385.964,79.9695 385.5,73.5C 385.197,71.8857 384.53,70.5523 383.5,69.5 Z"/></g>
<g><path style="opacity:1" fill="#c92c32" d="M 401.5,72.5 C 406.492,74.6609 411.159,77.3276 415.5,80.5C 419.194,83.5271 422.527,86.8604 425.5,90.5C 427.165,94.495 428.832,98.495 430.5,102.5C 429.597,104.62 428.263,104.954 426.5,103.5C 421.839,97.5021 415.839,93.5021 408.5,91.5C 405.038,90.5184 401.371,90.185 397.5,90.5C 398.919,89.5489 400.585,89.2155 402.5,89.5C 402.468,83.8114 402.134,78.1448 401.5,72.5 Z"/></g>
<g><path style="opacity:1" fill="#42a4b7" d="M 424.5,78.5 C 427.502,81.1612 429.502,84.4945 430.5,88.5C 428.972,89.3092 427.306,89.9759 425.5,90.5C 422.527,86.8604 419.194,83.5271 415.5,80.5C 418.311,79.525 421.311,78.8583 424.5,78.5 Z"/></g>
<g><path style="opacity:1" fill="#258eac" d="M 442.5,80.5 C 445.866,82.164 449.533,82.9973 453.5,83C 455.455,83.9533 457.122,85.2866 458.5,87C 467.902,86.5168 473.902,90.6835 476.5,99.5C 481.817,100.643 485.484,103.81 487.5,109C 498.26,112.985 503.76,120.818 504,132.5C 515.827,138.817 519.16,148.151 514,160.5C 513.801,167.272 512.967,173.938 511.5,180.5C 510.5,182.5 509.5,184.5 508.5,186.5C 503.053,192.048 496.386,195.214 488.5,196C 484.988,206.503 477.654,212.169 466.5,213C 463.516,215.826 460.183,218.159 456.5,220C 446.772,220.772 437.105,222.272 427.5,224.5C 425.833,224.5 424.167,224.5 422.5,224.5C 419.945,222.193 417.279,222.36 414.5,225C 412.667,225.167 410.833,225.333 409,225.5C 403.017,223.605 396.85,222.438 390.5,222C 385.173,220.682 381.506,217.515 379.5,212.5C 362.121,210.121 354.621,200.121 357,182.5C 351.602,176.389 349.769,169.389 351.5,161.5C 352.791,161.263 353.791,161.596 354.5,162.5C 352.538,170.647 354.872,177.313 361.5,182.5C 357.732,199.312 364.398,208.312 381.5,209.5C 382.163,213.341 384.163,216.175 387.5,218C 393.007,218.756 398.34,220.09 403.5,222C 409.144,223.07 414.477,222.236 419.5,219.5C 421.787,220.922 424.287,221.589 427,221.5C 431.767,220.975 436.434,219.975 441,218.5C 450.638,220.106 458.805,217.273 465.5,210C 477.047,209.613 483.714,203.78 485.5,192.5C 498.377,192.777 506.543,186.777 510,174.5C 509.912,166.281 511.079,158.281 513.5,150.5C 512.205,143.197 508.205,137.864 501.5,134.5C 501.223,124.085 496.557,116.585 487.5,112C 486.207,111.51 484.873,111.343 483.5,111.5C 483.167,105.167 479.833,101.833 473.5,101.5C 473.116,98.2307 471.782,95.3974 469.5,93C 465.381,91.1491 461.048,89.9824 456.5,89.5C 455.636,87.8035 454.303,86.6368 452.5,86C 449.518,85.502 446.518,85.3354 443.5,85.5C 442.699,83.9582 442.366,82.2915 442.5,80.5 Z"/></g>
<g><path style="opacity:1" fill="#80dcda" d="M 430.5,88.5 C 431.268,89.2625 431.768,90.2625 432,91.5C 432.499,95.4862 432.666,99.4862 432.5,103.5C 431.833,103.167 431.167,102.833 430.5,102.5C 428.832,98.495 427.165,94.495 425.5,90.5C 427.306,89.9759 428.972,89.3092 430.5,88.5 Z"/></g>
<g><path style="opacity:1" fill="#42a3b6" d="M 397.5,90.5 C 401.371,90.185 405.038,90.5184 408.5,91.5C 405.013,92.4076 402.013,94.0743 399.5,96.5C 397.585,96.2155 395.919,96.5489 394.5,97.5C 389.005,98.2211 383.672,99.5545 378.5,101.5C 380.649,99.2542 383.316,97.7542 386.5,97C 387.582,95.6703 388.249,94.1703 388.5,92.5C 391.402,91.4222 394.402,90.7556 397.5,90.5 Z"/></g>
<g><path style="opacity:1" fill="#82dad9" d="M 408.5,91.5 C 415.839,93.5021 421.839,97.5021 426.5,103.5C 426.262,105.404 425.262,106.738 423.5,107.5C 417.346,100.094 409.346,96.4272 399.5,96.5C 402.013,94.0743 405.013,92.4076 408.5,91.5 Z"/></g>
<g><path style="opacity:1" fill="#7ae1e1" d="M 358.5,164.5 C 361.118,165.945 363.618,167.611 366,169.5C 368.447,165.803 367.947,162.636 364.5,160C 361.901,158.205 359.234,156.705 356.5,155.5C 356.962,148.91 359.795,143.577 365,139.5C 364.627,132.248 367.461,126.748 373.5,123C 371.292,122.809 369.292,122.309 367.5,121.5C 371.5,121.5 375.5,121.5 379.5,121.5C 386.374,120.871 392.708,118.871 398.5,115.5C 403.468,113.687 408.468,111.854 413.5,110C 415.81,109.503 418.143,109.337 420.5,109.5C 420.5,110.5 420.5,111.5 420.5,112.5C 412.297,112.544 407.797,116.544 407,124.5C 409.426,117.753 414.259,114.586 421.5,115C 429.904,104.271 439.071,103.771 449,113.5C 453.15,110.502 457.65,109.835 462.5,111.5C 463.696,111.154 463.696,110.654 462.5,110C 461.5,109.667 460.5,109.333 459.5,109C 455.47,108.674 451.47,108.674 447.5,109C 444.909,106.883 442.242,105.05 439.5,103.5C 441.584,100.947 442.917,97.9466 443.5,94.5C 448.74,92.4807 453.074,93.6474 456.5,98C 464.612,97.0505 470.279,100.217 473.5,107.5C 478.654,108.983 481.654,112.316 482.5,117.5C 493.847,119.136 499.347,125.803 499,137.5C 505.755,140.403 509.589,145.403 510.5,152.5C 508.488,161.761 506.655,171.094 505,180.5C 499.678,187.562 492.511,190.896 483.5,190.5C 481.584,200.904 475.251,206.071 464.5,206C 457.764,213.358 449.598,215.858 440,213.5C 433.597,216.534 426.93,217.201 420,215.5C 416.609,216.949 413.109,217.949 409.5,218.5C 402.676,216.347 395.676,214.847 388.5,214C 385.404,211.971 383.738,209.138 383.5,205.5C 367.307,205.793 360.474,197.793 363,181.5C 359.352,178.036 357.186,173.87 356.5,169C 356.569,167.014 357.235,165.514 358.5,164.5 Z"/></g>
<g><path style="opacity:1" fill="#f16829" d="M 394.5,97.5 C 395.919,96.5489 397.585,96.2155 399.5,96.5C 409.346,96.4272 417.346,100.094 423.5,107.5C 423.027,108.906 422.027,109.573 420.5,109.5C 418.143,109.337 415.81,109.503 413.5,110C 408.468,111.854 403.468,113.687 398.5,115.5C 397.759,109.529 397.425,103.529 397.5,97.5C 396.5,97.5 395.5,97.5 394.5,97.5 Z"/></g>
<g><path style="opacity:1" fill="#f37a24" d="M 394.5,97.5 C 395.5,97.5 396.5,97.5 397.5,97.5C 397.425,103.529 397.759,109.529 398.5,115.5C 392.708,118.871 386.374,120.871 379.5,121.5C 378.784,115.335 377.784,109.335 376.5,103.5C 377.167,102.833 377.833,102.167 378.5,101.5C 383.672,99.5545 389.005,98.2211 394.5,97.5 Z"/></g>
<g><path style="opacity:1" fill="#f68c23" d="M 376.5,103.5 C 377.784,109.335 378.784,115.335 379.5,121.5C 375.5,121.5 371.5,121.5 367.5,121.5C 366.5,121.5 365.5,121.5 364.5,121.5C 364.158,120.662 363.492,120.328 362.5,120.5C 356.631,118.404 351.631,115.071 347.5,110.5C 357.531,109.553 367.197,107.219 376.5,103.5 Z"/></g>
<g><path style="opacity:1" fill="#46b0c0" d="M 430.5,102.5 C 431.167,102.833 431.833,103.167 432.5,103.5C 434.833,103.5 437.167,103.5 439.5,103.5C 442.242,105.05 444.909,106.883 447.5,109C 451.47,108.674 455.47,108.674 459.5,109C 460.5,109.333 461.5,109.667 462.5,110C 463.696,110.654 463.696,111.154 462.5,111.5C 457.65,109.835 453.15,110.502 449,113.5C 439.071,103.771 429.904,104.271 421.5,115C 414.259,114.586 409.426,117.753 407,124.5C 407.797,116.544 412.297,112.544 420.5,112.5C 420.5,111.5 420.5,110.5 420.5,109.5C 422.027,109.573 423.027,108.906 423.5,107.5C 425.262,106.738 426.262,105.404 426.5,103.5C 428.263,104.954 429.597,104.62 430.5,102.5 Z"/></g>
<g><path style="opacity:1" fill="#7ae1e1" d="M 198.5,133.5 C 176.106,127.187 162.772,135.354 158.5,158C 145.5,158.583 132.5,159.083 119.5,159.5C 119.833,156.167 120.167,152.833 120.5,149.5C 130.518,149.59 140.518,149.257 150.5,148.5C 151.106,141.106 152.106,133.772 153.5,126.5C 134.177,127.422 114.843,128.089 95.5,128.5C 91.6153,159.141 87.9487,189.808 84.5,220.5C 75.6533,214.243 66.9867,207.743 58.5,201C 62.5338,171.157 66.5338,141.324 70.5,111.5C 73.1071,110.682 75.7737,110.182 78.5,110C 95.4956,109.074 112.496,108.741 129.5,109C 133.929,112.295 138.429,115.462 143,118.5C 153.408,112.85 164.242,112.017 175.5,116C 183.351,121.697 191.018,127.53 198.5,133.5 Z"/></g>
<g><path style="opacity:0.999" fill="#79e0e1" d="M 324.5,130.5 C 302.175,125.536 289.508,134.203 286.5,156.5C 284.167,156.5 281.833,156.5 279.5,156.5C 278.916,164.174 278.249,171.841 277.5,179.5C 279.167,179.5 280.833,179.5 282.5,179.5C 281.478,192.535 279.978,205.535 278,218.5C 277.626,219.416 277.126,220.25 276.5,221C 273.81,221.771 271.144,222.604 268.5,223.5C 267.637,228.463 266.97,233.463 266.5,238.5C 258.384,233.267 250.384,227.767 242.5,222C 241.594,220.301 241.261,218.467 241.5,216.5C 249.731,218.026 257.898,217.692 266,215.5C 266.945,215.095 267.612,214.428 268,213.5C 268.912,208.536 269.412,203.536 269.5,198.5C 264.761,199.593 262.761,197.76 263.5,193C 264.84,180.769 266.507,168.603 268.5,156.5C 259.19,155.502 249.857,155.168 240.5,155.5C 239.695,168.246 238.195,180.913 236,193.5C 233.729,196.463 230.896,197.13 227.5,195.5C 226.905,193.56 226.572,191.56 226.5,189.5C 227.917,178.501 229.25,167.501 230.5,156.5C 221.27,156.994 212.103,157.66 203,158.5C 201.203,172.299 199.703,186.132 198.5,200C 198.039,204.925 199.039,209.425 201.5,213.5C 194.575,209.248 187.908,204.581 181.5,199.5C 181.944,193.168 182.444,186.835 183,180.5C 186.057,179.549 189.223,179.216 192.5,179.5C 193.261,172.176 193.927,164.842 194.5,157.5C 191.833,157.5 189.167,157.5 186.5,157.5C 187.126,151.547 190.46,148.88 196.5,149.5C 197.008,145.264 198.008,141.264 199.5,137.5C 201.631,138.314 203.964,138.814 206.5,139C 209.029,141.029 211.696,142.862 214.5,144.5C 215.221,142.314 215.887,140.147 216.5,138C 225.508,137.333 234.508,136.999 243.5,137C 247.088,139.377 250.588,141.877 254,144.5C 253.138,138.528 255.638,136.195 261.5,137.5C 263.862,117.144 275.195,108.644 295.5,112C 298.232,112.413 300.899,113.08 303.5,114C 310.932,119.037 317.932,124.537 324.5,130.5 Z"/></g>
<g><path style="opacity:1" fill="#3290ad" d="M 362.5,120.5 C 363.492,120.328 364.158,120.662 364.5,121.5C 363.503,126.157 362.503,130.824 361.5,135.5C 355.737,140.436 353.071,146.769 353.5,154.5C 352.391,154.443 351.391,154.11 350.5,153.5C 350.521,145.595 353.354,138.928 359,133.5C 359.396,128.915 360.562,124.581 362.5,120.5 Z"/></g>
<g><path style="opacity:1" fill="#3dadbe" d="M 364.5,121.5 C 365.5,121.5 366.5,121.5 367.5,121.5C 369.292,122.309 371.292,122.809 373.5,123C 367.461,126.748 364.627,132.248 365,139.5C 359.795,143.577 356.962,148.91 356.5,155.5C 355.391,155.443 354.391,155.11 353.5,154.5C 353.071,146.769 355.737,140.436 361.5,135.5C 362.503,130.824 363.503,126.157 364.5,121.5 Z"/></g>
<g><path style="opacity:1" fill="#048aaa" d="M 198.5,133.5 C 199.434,134.568 199.768,135.901 199.5,137.5C 198.008,141.264 197.008,145.264 196.5,149.5C 190.46,148.88 187.126,151.547 186.5,157.5C 189.167,157.5 191.833,157.5 194.5,157.5C 193.927,164.842 193.261,172.176 192.5,179.5C 189.223,179.216 186.057,179.549 183,180.5C 182.444,186.835 181.944,193.168 181.5,199.5C 180.088,206.652 178.921,213.986 178,221.5C 174.634,236.028 165.467,243.362 150.5,243.5C 146.701,243.34 143.034,242.673 139.5,241.5C 139.635,235.819 139.968,230.152 140.5,224.5C 145.487,225.651 148.987,223.984 151,219.5C 153.049,206.893 154.549,194.226 155.5,181.5C 146.467,181.284 137.467,181.617 128.5,182.5C 124.5,182.5 120.5,182.5 116.5,182.5C 115.247,194.857 113.913,207.19 112.5,219.5C 103.154,219.538 93.8203,219.871 84.5,220.5C 87.9487,189.808 91.6153,159.141 95.5,128.5C 114.843,128.089 134.177,127.422 153.5,126.5C 152.106,133.772 151.106,141.106 150.5,148.5C 140.518,149.257 130.518,149.59 120.5,149.5C 120.167,152.833 119.833,156.167 119.5,159.5C 132.5,159.083 145.5,158.583 158.5,158C 162.772,135.354 176.106,127.187 198.5,133.5 Z"/></g>
<g><path style="opacity:1" fill="#048aaa" d="M 324.5,130.5 C 325.643,130.908 326.643,131.575 327.5,132.5C 325.859,137.373 324.859,142.373 324.5,147.5C 321.447,147.111 318.78,147.777 316.5,149.5C 315.035,150.406 314.035,151.739 313.5,153.5C 316.086,154.48 318.753,154.813 321.5,154.5C 322.097,154.735 322.43,155.235 322.5,156C 321.459,163.165 320.459,170.331 319.5,177.5C 316.5,177.5 313.5,177.5 310.5,177.5C 308.977,193.993 306.477,210.326 303,226.5C 299.495,234.003 293.662,238.503 285.5,240C 280.167,240.667 274.833,240.667 269.5,240C 268.263,239.768 267.263,239.268 266.5,238.5C 266.97,233.463 267.637,228.463 268.5,223.5C 271.144,222.604 273.81,221.771 276.5,221C 277.126,220.25 277.626,219.416 278,218.5C 279.978,205.535 281.478,192.535 282.5,179.5C 280.833,179.5 279.167,179.5 277.5,179.5C 278.249,171.841 278.916,164.174 279.5,156.5C 281.833,156.5 284.167,156.5 286.5,156.5C 289.508,134.203 302.175,125.536 324.5,130.5 Z"/></g>
<g><path style="opacity:1" fill="#ecd2b8" d="M 470.5,131.5 C 490.594,138.36 498.094,152.027 493,172.5C 483.63,189.842 469.13,200.342 449.5,204C 435.581,206.649 421.914,205.816 408.5,201.5C 406.835,197.168 404.002,193.834 400,191.5C 400.224,186.949 398.557,183.282 395,180.5C 396.341,176.208 395.508,172.374 392.5,169C 402.276,164.843 405.609,157.677 402.5,147.5C 407.471,146.363 411.138,143.529 413.5,139C 416.965,138.35 419.965,136.85 422.5,134.5C 424.454,135.851 426.621,136.518 429,136.5C 432.514,135.913 436.014,135.246 439.5,134.5C 446.811,135.56 454.144,135.727 461.5,135C 464.802,134.339 467.802,133.172 470.5,131.5 Z"/></g>
<g><path style="opacity:1" fill="#feeddb" d="M 469.5,133.5 C 496.692,145.246 500.692,162.413 481.5,185C 460.548,200.964 437.381,205.464 412,198.5C 410.327,195.329 407.827,192.995 404.5,191.5C 403.522,187.541 401.522,184.208 398.5,181.5C 401.293,177.481 400.626,173.981 396.5,171C 404.964,165.901 408.464,158.401 407,148.5C 409.833,147 412,144.833 413.5,142C 417.559,141.718 421.059,140.218 424,137.5C 429.112,140.044 434.112,139.71 439,136.5C 449.745,141.036 459.912,140.036 469.5,133.5 Z"/></g>
<g><path style="opacity:1" fill="#272324" d="M 478.5,145.5 C 484.058,146.921 486.391,150.588 485.5,156.5C 482.762,156.851 480.096,157.518 477.5,158.5C 474.721,153.949 475.054,149.615 478.5,145.5 Z"/></g>
<g><path style="opacity:1" fill="#252223" d="M 508.5,186.5 C 509.5,184.5 510.5,182.5 511.5,180.5C 519.696,181.537 527.196,179.871 534,175.5C 535.707,173.091 536.54,170.425 536.5,167.5C 526.146,167.991 522.312,163.324 525,153.5C 526.043,148.777 528.876,146.944 533.5,148C 540.924,156.263 543.424,165.763 541,176.5C 537.857,181.497 533.357,184.664 527.5,186C 521.175,186.5 514.842,186.666 508.5,186.5 Z"/></g>
<g><path style="opacity:1" fill="#7ce0e1" d="M 316.5,149.5 C 318.36,150.939 320.027,152.605 321.5,154.5C 318.753,154.813 316.086,154.48 313.5,153.5C 314.035,151.739 315.035,150.406 316.5,149.5 Z"/></g>
<g><path style="opacity:1" fill="#272425" d="M 350.5,153.5 C 351.391,154.11 352.391,154.443 353.5,154.5C 354.391,155.11 355.391,155.443 356.5,155.5C 359.234,156.705 361.901,158.205 364.5,160C 367.947,162.636 368.447,165.803 366,169.5C 363.618,167.611 361.118,165.945 358.5,164.5C 357.486,163.326 356.153,162.66 354.5,162.5C 353.791,161.596 352.791,161.263 351.5,161.5C 349.372,160.371 347.039,160.204 344.5,161C 341.035,163.463 337.869,166.296 335,169.5C 336.082,173.023 336.415,176.69 336,180.5C 333.253,182.493 331.086,184.993 329.5,188C 323.992,190.351 320.659,188.518 319.5,182.5C 319.787,179.135 320.954,176.135 323,173.5C 327.8,167.698 332.967,162.198 338.5,157C 342.034,154.323 346.034,153.156 350.5,153.5 Z"/></g>
<g><path style="opacity:1" fill="#2a2626" d="M 436.5,153.5 C 443.279,154.551 445.613,158.385 443.5,165C 434.397,168.899 431.23,166.065 434,156.5C 435.045,155.627 435.878,154.627 436.5,153.5 Z"/></g>
<g><path style="opacity:1" fill="#038aaa" d="M 241.5,216.5 C 239.193,215.023 237.36,213.023 236,210.5C 228.549,217.539 219.716,220.372 209.5,219C 206.244,217.884 203.578,216.051 201.5,213.5C 199.039,209.425 198.039,204.925 198.5,200C 199.703,186.132 201.203,172.299 203,158.5C 212.103,157.66 221.27,156.994 230.5,156.5C 229.25,167.501 227.917,178.501 226.5,189.5C 226.572,191.56 226.905,193.56 227.5,195.5C 230.896,197.13 233.729,196.463 236,193.5C 238.195,180.913 239.695,168.246 240.5,155.5C 249.857,155.168 259.19,155.502 268.5,156.5C 266.507,168.603 264.84,180.769 263.5,193C 262.761,197.76 264.761,199.593 269.5,198.5C 269.412,203.536 268.912,208.536 268,213.5C 267.612,214.428 266.945,215.095 266,215.5C 257.898,217.692 249.731,218.026 241.5,216.5 Z"/></g>
<g><path style="opacity:1" fill="#3dadbf" d="M 443.5,85.5 C 446.518,85.3354 449.518,85.502 452.5,86C 454.303,86.6368 455.636,87.8035 456.5,89.5C 461.048,89.9824 465.381,91.1491 469.5,93C 471.782,95.3974 473.116,98.2307 473.5,101.5C 479.833,101.833 483.167,105.167 483.5,111.5C 484.873,111.343 486.207,111.51 487.5,112C 496.557,116.585 501.223,124.085 501.5,134.5C 508.205,137.864 512.205,143.197 513.5,150.5C 511.079,158.281 509.912,166.281 510,174.5C 506.543,186.777 498.377,192.777 485.5,192.5C 483.714,203.78 477.047,209.613 465.5,210C 458.805,217.273 450.638,220.106 441,218.5C 436.434,219.975 431.767,220.975 427,221.5C 424.287,221.589 421.787,220.922 419.5,219.5C 414.477,222.236 409.144,223.07 403.5,222C 398.34,220.09 393.007,218.756 387.5,218C 384.163,216.175 382.163,213.341 381.5,209.5C 364.398,208.312 357.732,199.312 361.5,182.5C 354.872,177.313 352.538,170.647 354.5,162.5C 356.153,162.66 357.486,163.326 358.5,164.5C 357.235,165.514 356.569,167.014 356.5,169C 357.186,173.87 359.352,178.036 363,181.5C 360.474,197.793 367.307,205.793 383.5,205.5C 383.738,209.138 385.404,211.971 388.5,214C 395.676,214.847 402.676,216.347 409.5,218.5C 413.109,217.949 416.609,216.949 420,215.5C 426.93,217.201 433.597,216.534 440,213.5C 449.598,215.858 457.764,213.358 464.5,206C 475.251,206.071 481.584,200.904 483.5,190.5C 492.511,190.896 499.678,187.562 505,180.5C 506.655,171.094 508.488,161.761 510.5,152.5C 509.589,145.403 505.755,140.403 499,137.5C 499.347,125.803 493.847,119.136 482.5,117.5C 481.654,112.316 478.654,108.983 473.5,107.5C 470.279,100.217 464.612,97.0505 456.5,98C 453.074,93.6474 448.74,92.4807 443.5,94.5C 443.5,91.5 443.5,88.5 443.5,85.5 Z"/></g>
<g><path style="opacity:1" fill="#f04c3f" d="M 469.5,165.5 C 470.5,165.5 471.5,165.5 472.5,165.5C 472.324,178.835 468.324,180.002 460.5,169C 463.584,167.893 466.584,166.727 469.5,165.5 Z"/></g>
<g><path style="opacity:1" fill="#7ae1e1" d="M 139.5,241.5 C 131.211,235.718 123.045,229.718 115,223.5C 114.905,217.843 115.072,212.176 115.5,206.5C 119.803,207.204 123.303,205.87 126,202.5C 126.9,195.827 127.734,189.161 128.5,182.5C 137.467,181.617 146.467,181.284 155.5,181.5C 154.549,194.226 153.049,206.893 151,219.5C 148.987,223.984 145.487,225.651 140.5,224.5C 139.968,230.152 139.635,235.819 139.5,241.5 Z"/></g>
<g><path style="opacity:1" fill="#272324" d="M 504.5,219.5 C 507.187,219.336 509.854,219.503 512.5,220C 512.513,228.507 509.513,236.007 503.5,242.5C 498.398,244.246 495.398,242.413 494.5,237C 495.909,230.01 499.242,224.177 504.5,219.5 Z"/></g>
<g><path style="opacity:1" fill="#eaeaea" d="M 422.5,224.5 C 424.167,224.5 425.833,224.5 427.5,224.5C 425.159,232.191 422.659,239.857 420,247.5C 415.562,251.889 410.396,252.722 404.5,250C 396.955,246.396 389.622,242.563 382.5,238.5C 382.833,237.167 383.167,235.833 383.5,234.5C 390.654,238.578 397.987,242.411 405.5,246C 408.738,247.368 412.072,247.701 415.5,247C 419.3,239.969 421.633,232.469 422.5,224.5 Z"/></g>
<g><path style="opacity:1" fill="#262223" d="M 383.5,234.5 C 383.167,235.833 382.833,237.167 382.5,238.5C 378.587,243.955 373.254,246.455 366.5,246C 364.675,244.534 364.175,242.701 365,240.5C 368.201,236.964 371.701,233.797 375.5,231C 379.468,229.579 382.135,230.746 383.5,234.5 Z"/></g>
</svg>
