<svg fill="#22C3E6" xmlns="http://www.w3.org/2000/svg"  viewBox="0 0 16 16" width="256px" height="256px"><path d="M 12.205078 1.0078125 A 0.50005 0.50005 0 0 0 12.150391 1.0136719 L 5.5136719 2.0546875 A 0.50005 0.50005 0 0 0 5.1015625 2.4492188 L 4.6308594 4.7792969 L 2.3339844 4.9277344 A 0.50005 0.50005 0 0 0 1.8769531 5.328125 L 1.4101562 7.6210938 A 0.50005 0.50005 0 0 0 2.2167969 8.1074219 L 3.1992188 7.3066406 L 10.347656 14.837891 A 0.50005 0.50005 0 0 0 11.162109 14.28125 L 7.8867188 7.3066406 L 9.046875 5.859375 L 14.291016 3.6875 A 0.50005 0.50005 0 0 0 14.089844 2.7246094 L 10.849609 2.796875 L 12.458984 1.9492188 A 0.50005 0.50005 0 0 0 12.205078 1.0078125 z M 9.3300781 2.4667969 L 8.5039062 2.9023438 A 0.50005 0.50005 0 0 0 8.7480469 3.84375 L 11.443359 3.7832031 L 8.5449219 4.984375 A 0.50005 0.50005 0 0 0 8.3457031 5.1328125 L 6.9101562 6.9238281 A 0.50005 0.50005 0 0 0 6.8476562 7.4492188 L 8.9414062 11.902344 L 3.6054688 6.28125 A 0.50005 0.50005 0 0 0 2.9277344 6.2382812 L 2.6679688 6.4492188 L 2.7792969 5.9003906 L 5.0761719 5.7539062 A 0.50005 0.50005 0 0 0 5.5332031 5.3535156 L 6.0136719 2.9882812 L 9.3300781 2.4667969 z"/></svg>
